<svg xmlns="http://www.w3.org/2000/svg" width="265" height="42.789" viewBox="0 0 265 42.789">
  <g id="Group_2201" data-name="Group 2201" transform="translate(7245 6649)">
    <path id="Fill_2" data-name="Fill 2" d="M15.968,20.286H11.344a.092.092,0,0,1-.079-.045L6.418,12.009H4.166v8.184a.092.092,0,0,1-.092.093H.092A.092.092,0,0,1,0,20.194V.092A.092.092,0,0,1,.092,0H7.807c4.621,0,7.166,2.093,7.166,5.892a5.866,5.866,0,0,1-1.282,3.852,6.261,6.261,0,0,1-2.821,1.942l5.175,8.458a.093.093,0,0,1,0,.094A.092.092,0,0,1,15.968,20.286ZM4.166,3.507V8.446H7.612c2.131,0,3.167-.835,3.167-2.554,0-1.088-.545-2.385-3.139-2.385Z" transform="translate(-7195.248 -6637.748)" fill="#7159c1"/>
    <path id="Fill_4" data-name="Fill 4" d="M7.082,15C2.846,15,0,11.978,0,7.485,0,3.148,2.979,0,7.082,0c4.22,0,7.055,3.008,7.055,7.485C14.137,11.838,11.17,15,7.082,15Zm0-11.524C5.06,3.474,3.8,5.011,3.8,7.485c0,2.508,1.256,4.065,3.279,4.065,2,0,3.251-1.558,3.251-4.065,0-2.474-1.242-4.011-3.248-4.011Z" transform="translate(-7178.573 -6632.394)" fill="#7159c1"/>
    <path id="Fill_6" data-name="Fill 6" d="M6.943,3.474A2.515,2.515,0,0,1,9.695,5.629a.092.092,0,0,0,.09.073h3.537a.092.092,0,0,0,.068-.03.093.093,0,0,0,.024-.07C13.124,2.042,10.8,0,7.027,0A6.679,6.679,0,0,0,1.841,2.182,8.02,8.02,0,0,0,0,7.594C0,12.161,2.639,15,6.887,15c3.76,0,6.138-2.011,6.525-5.518a.094.094,0,0,0-.023-.072.091.091,0,0,0-.068-.031H9.784a.092.092,0,0,0-.09.074c-.279,1.414-1.171,2.073-2.807,2.073C4.2,11.524,3.8,9.027,3.8,7.539c0-1.965.825-4.066,3.139-4.066" transform="translate(-7162.834 -6632.394)" fill="#7159c1"/>
    <path id="Fill_8" data-name="Fill 8" d="M7.027,15C2.627,15,0,12.209,0,7.539,0,3.03,2.813,0,7,0c4.111,0,6.665,2.806,6.665,7.322,0,.488-.028.9-.055,1.3v.013a.092.092,0,0,1-.091.086H3.841c.213,1.969,1.266,2.968,3.13,2.968a2.307,2.307,0,0,0,2.56-1.569.092.092,0,0,1,.086-.062h3.509a.091.091,0,0,1,.07.032.093.093,0,0,1,.021.074C12.8,13.009,10.25,15,7.027,15ZM6.943,3.365a2.781,2.781,0,0,0-2.978,2.37H9.812A2.669,2.669,0,0,0,6.943,3.365Z" transform="translate(-7134.611 -6632.394)" fill="#7159c1"/>
    <path id="Fill_10" data-name="Fill 10" d="M9.617,3.7H6.366V.092A.092.092,0,0,0,6.275,0H2.654a.092.092,0,0,0-.091.092V3.7H.092A.092.092,0,0,0,0,3.8V7.063a.092.092,0,0,0,.092.092h2.47v7.626c0,3.252,1.829,3.918,4.576,3.918H9.617a.092.092,0,0,0,.092-.092V15.4a.092.092,0,0,0-.092-.092H7.779c-1.1,0-1.412-.3-1.412-1.332V7.156h3.25a.092.092,0,0,0,.092-.092V3.8a.092.092,0,0,0-.092-.1" transform="translate(-7119.299 -6636.097)" fill="#7159c1"/>
    <path id="Fill_12" data-name="Fill 12" d="M8.671,6.31h0L5.608,5.332C4.466,4.942,4.25,4.632,4.25,4.2s.2-1.049,1.886-1.049c1.313,0,2.112.546,2.137,1.459a.092.092,0,0,0,.092.09H11.9a.091.091,0,0,0,.065-.028.092.092,0,0,0,.027-.066A4.106,4.106,0,0,0,10.208,1,7.188,7.188,0,0,0,6.219,0C3.412,0,.392,1.181.335,4.5c0,2.58,1.877,3.5,3.713,4.056l2.338.733c1.694.56,2.137.734,2.137,1.38,0,.727-.4,1.212-2.36,1.212C4.6,11.877,3.8,11.3,3.72,10.115a.092.092,0,0,0-.091-.087H.092A.092.092,0,0,0,0,10.121C0,14.151,3.367,15,6.192,15a8.026,8.026,0,0,0,4.2-1.033,4.038,4.038,0,0,0,1.937-3.625c0-2.331-1.461-3.3-3.656-4.029" transform="translate(-7107.942 -6632.394)" fill="#7159c1"/>
    <path id="Fill_14" data-name="Fill 14" d="M7.027,15C2.627,15,0,12.209,0,7.539,0,3.03,2.813,0,7,0c4.111,0,6.665,2.806,6.665,7.322,0,.488-.028.9-.055,1.3v.013a.092.092,0,0,1-.091.086H3.841c.213,1.969,1.266,2.968,3.13,2.968a2.307,2.307,0,0,0,2.56-1.569.092.092,0,0,1,.086-.062h3.509a.092.092,0,0,1,.07.032.093.093,0,0,1,.021.074C12.8,13.009,10.25,15,7.027,15ZM6.943,3.365a2.781,2.781,0,0,0-2.977,2.37H9.812A2.669,2.669,0,0,0,6.943,3.365Z" transform="translate(-7094.312 -6632.394)" fill="#7159c1"/>
    <path id="Fill_16" data-name="Fill 16" d="M13.739,15.013H10.982a1.745,1.745,0,0,1-1.246-.531,2.334,2.334,0,0,1-.624-1.563A5.1,5.1,0,0,1,4.66,14.932c-2.787,0-4.66-1.69-4.66-4.206C0,8.26,1.684,6.709,5.006,6.117L7.4,5.657c1.162-.188,1.43-.394,1.43-1.1,0-.848-.808-1.315-2.276-1.315-1.547,0-2.331.479-2.331,1.423a.092.092,0,0,1-.092.092H.593A.092.092,0,0,1,.5,4.665C.5,1.831,2.91,0,6.637,0c4.054,0,6.024,1.774,6.024,5.423v5.763c0,.52.243.773.744.773h.334a.092.092,0,0,1,.092.092V14.92a.092.092,0,0,1-.092.093ZM8.857,8.126a3.02,3.02,0,0,1-.756.23l-2.086.432c-1.491.325-2.1.816-2.1,1.7,0,1.2.935,1.45,1.719,1.45A3.236,3.236,0,0,0,8.857,8.616Z" transform="translate(-7079.014 -6632.394)" fill="#7159c1"/>
    <path id="Fill_18" data-name="Fill 18" d="M9.617,7.156a.092.092,0,0,0,.092-.092V3.8a.092.092,0,0,0-.092-.1H6.366V.092A.092.092,0,0,0,6.275,0H2.654a.092.092,0,0,0-.091.092V3.7H.091A.092.092,0,0,0,0,3.8V7.063a.092.092,0,0,0,.091.092H2.562v7.626c0,3.252,1.829,3.918,4.576,3.918H9.617a.092.092,0,0,0,.092-.092V15.4a.092.092,0,0,0-.092-.092H7.779c-1.1,0-1.412-.3-1.412-1.332V7.156Z" transform="translate(-7064.709 -6636.097)" fill="#7159c1"/>
    <path id="Fill_20" data-name="Fill 20" d="M7.815,5.878,13.569.159a.094.094,0,0,0,.021-.1A.092.092,0,0,0,13.5,0H8.968A.09.09,0,0,0,8.9.026l-5.1,5V.093A.092.092,0,0,0,3.713,0H.092A.092.092,0,0,0,0,.093V14.9a.092.092,0,0,0,.092.1H3.713a.092.092,0,0,0,.087-.1V9.888L5.091,8.609l4.283,6.348A.092.092,0,0,0,9.45,15h4.512a.092.092,0,0,0,.081-.05.093.093,0,0,0-.006-.1Z" transform="translate(-7147.772 -6632.394)" fill="#7159c1"/>
    <path id="Fill_22" data-name="Fill 22" d="M11.382,6.878C10.318,6.22,5.829,3.452,5.829,3.452S1.342.679.276.023A.156.156,0,0,0,.039.152C.027.4.01.77,0,.976a.49.49,0,0,0,.073.282l1.275,2.05a.915.915,0,0,1,.108.71l-.9,3.5A.368.368,0,0,0,.682,7.9a17.251,17.251,0,0,0,1.73,1.209,17.138,17.138,0,0,0,1.854,1,.359.359,0,0,0,.391-.06l2.67-2.407A.89.89,0,0,1,8,7.415l2.387.209a.477.477,0,0,0,.282-.063l.707-.411a.159.159,0,0,0,0-.272" transform="translate(-7239.676 -6627.899)" fill="#7159c1"/>
    <path id="Fill_24" data-name="Fill 24" d="M9.168,2.549A.893.893,0,0,0,8.69,1.9c-.711-.359-1.277-.7-1.432-.8S6.543.65,5.9.174A.876.876,0,0,0,5.108.043l-.155.05a3.365,3.365,0,0,0-2.2,2.319L.013,12.452a.342.342,0,0,0,.56.346l7.585-7.05A3.4,3.4,0,0,0,9.194,2.711Z" transform="translate(-7245 -6619.1)" fill="#7159c1"/>
    <path id="Fill_26" data-name="Fill 26" d="M33.428,1.877a.633.633,0,0,0-.015-.9h0a1.17,1.17,0,0,0-.554-.241L28.146.014A1.185,1.185,0,0,0,27.009.49L24.438,4.013a1.209,1.209,0,0,0,.2,1.64.09.09,0,0,1-.072.159l-1.3-.2L21.48,5.338a1.348,1.348,0,0,0-1.293.541l-7.516,10.3a.317.317,0,0,1-.421.085L5.019,11.847a.991.991,0,0,0-1.381.364,1.044,1.044,0,0,0,.39,1.384l.187.114a.271.271,0,0,1,.126.272l-.22,1.472a.2.2,0,0,1-.3.142l-1.058-.636a1.806,1.806,0,0,0-2.5.607A1.85,1.85,0,0,0,.6,17.9c.02.018.207.164.255.194h0l5.4,3.345a4.918,4.918,0,0,0,5.835-.2,1.893,1.893,0,0,1,2.481-.264,1.319,1.319,0,0,0,1.366,0l1.345-.806a1.242,1.242,0,0,1,1.287.006l4.1,2.5a.362.362,0,0,0,.481-.1L33.184,8.863c.817-1.1.212-1.637-.285-1.769-.032-.007-.063-.017-.1-.022L30.4,6.7a.291.291,0,0,1-.2-.434c.814-1.112,3.225-4.393,3.225-4.393" transform="translate(-7243.147 -6649)" fill="#7159c1"/>
    <g id="Rectangle_1055" data-name="Rectangle 1055" transform="translate(-7040 -6642)" fill="none">
      <path d="M5,0H55a5,5,0,0,1,5,5V25a5,5,0,0,1-5,5H5a5,5,0,0,1-5-5V5A5,5,0,0,1,5,0Z" stroke="none"/>
      <path d="M 5 2 C 3.345790863037109 2 2 3.345790863037109 2 5 L 2 25 C 2 26.65420913696289 3.345790863037109 28 5 28 L 55 28 C 56.65420913696289 28 58 26.65420913696289 58 25 L 58 5 C 58 3.345790863037109 56.65420913696289 2 55 2 L 5 2 M 5 0 L 55 0 C 57.76142120361328 0 60 2.238580703735352 60 5 L 60 25 C 60 27.76141929626465 57.76142120361328 30 55 30 L 5 30 C 2.238571166992188 30 0 27.76141929626465 0 25 L 0 5 C 0 2.238580703735352 2.238571166992188 0 5 0 Z" stroke="none" fill="#7159c1"/>
    </g>
    <path id="BLOG" d="M.7,0V-9.242h3.32a4.7,4.7,0,0,1,2.714.654,2.175,2.175,0,0,1,.93,1.9,2.2,2.2,0,0,1-.33,1.225,1.923,1.923,0,0,1-.971.749,1.948,1.948,0,0,1,1.111.711,2.067,2.067,0,0,1,.387,1.27A2.447,2.447,0,0,1,7-.7,4.093,4.093,0,0,1,4.45,0ZM2.926-3.929v2.215h1.46a1.389,1.389,0,0,0,.927-.276.966.966,0,0,0,.324-.778A1.025,1.025,0,0,0,4.488-3.929Zm0-1.46H4.088a1.654,1.654,0,0,0,1.041-.267.945.945,0,0,0,.311-.768A.992.992,0,0,0,5.1-7.265a1.8,1.8,0,0,0-1.085-.257H2.926Zm8.385,3.675H15.19V0H9.083V-9.242h2.228ZM23.55-4.431a5.45,5.45,0,0,1-.5,2.393,3.706,3.706,0,0,1-1.425,1.6,3.968,3.968,0,0,1-2.1.562,4.024,4.024,0,0,1-2.095-.543A3.7,3.7,0,0,1,16-1.968a5.293,5.293,0,0,1-.536-2.317v-.521a5.474,5.474,0,0,1,.5-2.4,3.7,3.7,0,0,1,1.428-1.6,4,4,0,0,1,2.117-.565,3.957,3.957,0,0,1,2.095.559,3.764,3.764,0,0,1,1.431,1.59,5.317,5.317,0,0,1,.517,2.365Zm-2.266-.387a3.886,3.886,0,0,0-.46-2.092,1.476,1.476,0,0,0-1.317-.714q-1.676,0-1.771,2.514l-.006.679a4,4,0,0,0,.451,2.088,1.474,1.474,0,0,0,1.339.73,1.456,1.456,0,0,0,1.3-.717,3.888,3.888,0,0,0,.463-2.063ZM32.265-1.143a3.582,3.582,0,0,1-1.5.92A6.489,6.489,0,0,1,28.59.127a3.871,3.871,0,0,1-2.9-1.111,4.5,4.5,0,0,1-1.162-3.091l-.006-.8A5.515,5.515,0,0,1,25-7.259a3.582,3.582,0,0,1,1.381-1.568,3.905,3.905,0,0,1,2.079-.549,4.094,4.094,0,0,1,2.682.79,3.349,3.349,0,0,1,1.114,2.358H30.113a1.752,1.752,0,0,0-.5-1.1,1.6,1.6,0,0,0-1.079-.33,1.454,1.454,0,0,0-1.295.711,3.8,3.8,0,0,0-.463,2.031v.559a3.716,3.716,0,0,0,.473,2.079,1.673,1.673,0,0,0,1.489.7,1.872,1.872,0,0,0,1.295-.387V-3.409H28.488v-1.53h3.777Z" transform="translate(-7025.431 -6622)" fill="#7159c1"/>
  </g>
</svg>
